<svg width="337" height="24" viewBox="0 0 337 24" fill="none" xmlns="http://www.w3.org/2000/svg">
<path d="M18.944 0.535999L19.9286 0.711033L20.1375 -0.464001H18.944V0.535999ZM18.176 4.856V5.856H19.0139L19.1606 5.03103L18.176 4.856ZM9.024 4.856V3.856H8.18147L8.0385 4.68631L9.024 4.856ZM8.192 9.688L7.2065 9.51831L7.0051 10.688H8.192V9.688ZM15.04 9.688L16.0234 9.86955L16.2415 8.688H15.04V9.688ZM14.272 13.848V14.848H15.1043L15.2554 14.0295L14.272 13.848ZM7.424 13.848V12.848H6.58366L6.43894 13.6758L7.424 13.848ZM5.824 23V24H6.66434L6.80906 23.1722L5.824 23ZM0.352 23L-0.632755 22.8261L-0.840119 24H0.352V23ZM4.32 0.535999V-0.464001H3.48116L3.33524 0.362054L4.32 0.535999ZM17.9594 0.360966L17.1914 4.68097L19.1606 5.03103L19.9286 0.711033L17.9594 0.360966ZM18.176 3.856H9.024V5.856H18.176V3.856ZM8.0385 4.68631L7.2065 9.51831L9.1775 9.85769L10.0095 5.02569L8.0385 4.68631ZM8.192 10.688H15.04V8.688H8.192V10.688ZM14.0566 9.50645L13.2886 13.6665L15.2554 14.0295L16.0234 9.86955L14.0566 9.50645ZM14.272 12.848H7.424V14.848H14.272V12.848ZM6.43894 13.6758L4.83894 22.8278L6.80906 23.1722L8.40906 14.0202L6.43894 13.6758ZM5.824 22H0.352V24H5.824V22ZM1.33676 23.1739L5.30476 0.709945L3.33524 0.362054L-0.632755 22.8261L1.33676 23.1739ZM4.32 1.536H18.944V-0.464001H4.32V1.536ZM26.524 4.856V3.856H25.6807L25.5383 4.68722L26.524 4.856ZM25.724 9.528L24.7383 9.35922L24.5382 10.528H25.724V9.528ZM33.052 9.528L34.0365 9.70353L34.2461 8.528H33.052V9.528ZM32.316 13.656V14.656H33.1535L33.3005 13.8315L32.316 13.656ZM24.988 13.656V12.656H24.1506L24.0035 13.4804L24.988 13.656ZM24.092 18.68L23.1075 18.5044L22.8979 19.68H24.092V18.68ZM32.38 18.68L33.3646 18.855L33.5735 17.68H32.38V18.68ZM31.612 23V24H32.4499L32.5966 23.175L31.612 23ZM17.852 23L16.8672 22.8261L16.6599 24H17.852V23ZM21.82 0.535999V-0.464001H20.9812L20.8352 0.362054L21.82 0.535999ZM35.58 0.535999L36.5646 0.711033L36.7735 -0.464001H35.58V0.535999ZM34.812 4.856V5.856H35.6499L35.7966 5.03103L34.812 4.856ZM25.5383 4.68722L24.7383 9.35922L26.7097 9.69678L27.5097 5.02478L25.5383 4.68722ZM25.724 10.528H33.052V8.528H25.724V10.528ZM32.0675 9.35247L31.3315 13.4805L33.3005 13.8315L34.0365 9.70353L32.0675 9.35247ZM32.316 12.656H24.988V14.656H32.316V12.656ZM24.0035 13.4804L23.1075 18.5044L25.0765 18.8556L25.9725 13.8316L24.0035 13.4804ZM24.092 19.68H32.38V17.68H24.092V19.68ZM31.3954 18.505L30.6274 22.825L32.5966 23.175L33.3646 18.855L31.3954 18.505ZM31.612 22H17.852V24H31.612V22ZM18.8368 23.1739L22.8048 0.709945L20.8352 0.362054L16.8672 22.8261L18.8368 23.1739ZM21.82 1.536H35.58V-0.464001H21.82V1.536ZM34.5954 0.360966L33.8274 4.68097L35.7966 5.03103L36.5646 0.711033L34.5954 0.360966ZM34.812 3.856H26.524V5.856H34.812V3.856ZM55.5165 6.36L56.5012 6.5347L56.5029 6.5244L55.5165 6.36ZM53.8845 9.656L53.1687 8.95768L53.1687 8.95768L53.8845 9.656ZM50.8125 11.48L50.5378 10.5185L50.5976 12.4566L50.8125 11.48ZM53.3405 13.048L54.1355 12.4413L54.1355 12.4413L53.3405 13.048ZM54.1725 16.888L53.1919 16.6919L53.1891 16.7059L53.1867 16.72L54.1725 16.888ZM51.4205 21.368L52.0039 22.1802L52.0114 22.1748L51.4205 21.368ZM35.1645 23L34.1797 22.8261L33.9724 24H35.1645V23ZM39.1325 0.535999V-0.464001H38.2937L38.1477 0.362054L39.1325 0.535999ZM53.9485 1.784L54.5485 0.983999L54.5485 0.983998L53.9485 1.784ZM49.7885 7.288L50.7749 7.4524L50.7749 7.4524L49.7885 7.288ZM49.2125 5.368L48.5684 6.13291L48.5805 6.14309L48.5929 6.15288L49.2125 5.368ZM43.8365 4.856V3.856H42.9949L42.8512 4.68521L43.8365 4.856ZM43.0045 9.656L42.0192 9.48521L41.8163 10.656H43.0045V9.656ZM48.7325 16.152L49.716 16.3332L49.7175 16.3248L49.7189 16.3164L48.7325 16.152ZM48.1245 14.136L47.4953 14.9132L47.5067 14.9225L47.5185 14.9314L48.1245 14.136ZM42.3005 13.592V12.592H41.4621L41.3158 13.4175L42.3005 13.592ZM41.4045 18.648L40.4198 18.4735L40.2117 19.648H41.4045V18.648ZM47.6765 18.008L47.0668 17.2154L47.0668 17.2154L47.6765 18.008ZM54.5319 6.18531C54.3286 7.33089 53.8681 8.24083 53.1687 8.95768L54.6003 10.3543C55.6076 9.32183 56.235 8.03444 56.5011 6.53469L54.5319 6.18531ZM53.1687 8.95768C52.4391 9.70553 51.568 10.2241 50.5378 10.5185L51.0872 12.4415C52.4464 12.0532 53.6232 11.3558 54.6003 10.3543L53.1687 8.95768ZM50.5976 12.4566C51.451 12.6444 52.081 13.046 52.5456 13.6547L54.1355 12.4413C53.3626 11.4287 52.3073 10.785 51.0274 10.5034L50.5976 12.4566ZM52.5456 13.6547C53.022 14.279 53.2685 15.0116 53.2685 15.896H55.2685C55.2685 14.6044 54.8963 13.4383 54.1355 12.4413L52.5456 13.6547ZM53.2685 15.896C53.2685 16.1745 53.2424 16.4393 53.1919 16.6919L55.1531 17.0841C55.2306 16.6967 55.2685 16.3002 55.2685 15.896H53.2685ZM53.1867 16.72C52.9097 18.3453 52.1313 19.6079 50.8296 20.5612L52.0114 22.1748C53.739 20.9095 54.7953 19.1854 55.1583 17.056L53.1867 16.72ZM50.8371 20.5558C49.5319 21.4933 47.8203 22 45.6285 22V24C48.13 24 50.2797 23.4187 52.0039 22.1802L50.8371 20.5558ZM45.6285 22H35.1645V24H45.6285V22ZM36.1493 23.1739L40.1173 0.709945L38.1477 0.362054L34.1797 22.8261L36.1493 23.1739ZM39.1325 1.536H49.2445V-0.464001H39.1325V1.536ZM49.2445 1.536C51.1507 1.536 52.4758 1.9295 53.3485 2.584L54.5485 0.983998C53.2025 -0.0254984 51.3917 -0.464001 49.2445 -0.464001V1.536ZM53.3485 2.584C54.1885 3.214 54.6125 4.06018 54.6125 5.24H56.6125C56.6125 3.47582 55.9272 2.018 54.5485 0.983999L53.3485 2.584ZM54.6125 5.24C54.6125 5.54373 54.5857 5.86199 54.5301 6.1956L56.5029 6.5244C56.5753 6.09 56.6125 5.6616 56.6125 5.24H54.6125ZM46.5565 10.656C47.6156 10.656 48.5794 10.4218 49.3545 9.85539L48.1745 8.24061C47.8403 8.48482 47.3321 8.656 46.5565 8.656V10.656ZM49.3545 9.85539C50.149 9.27481 50.6101 8.44097 50.7749 7.4524L48.8021 7.1236C48.7109 7.67102 48.4893 8.01052 48.1745 8.24061L49.3545 9.85539ZM50.7749 7.4524C50.8092 7.24671 50.8205 7.01417 50.8205 6.776H48.8205C48.8205 6.9645 48.8105 7.07329 48.8021 7.1236L50.7749 7.4524ZM50.8205 6.776C50.8205 5.91881 50.5261 5.13099 49.8321 4.58312L48.5929 6.15288C48.7095 6.24501 48.8205 6.39586 48.8205 6.776H50.8205ZM49.8566 4.60309C49.2009 4.05091 48.334 3.856 47.4205 3.856V5.856C48.0857 5.856 48.4134 6.00243 48.5684 6.13291L49.8566 4.60309ZM47.4205 3.856H43.8365V5.856H47.4205V3.856ZM42.8512 4.68521L42.0192 9.48521L43.9898 9.82679L44.8218 5.02679L42.8512 4.68521ZM43.0045 10.656H46.5565V8.656H43.0045V10.656ZM49.7189 16.3164C49.7634 16.0494 49.7965 15.7903 49.7965 15.576H47.7965C47.7965 15.6177 47.7869 15.7426 47.7461 15.9876L49.7189 16.3164ZM49.7965 15.576C49.7965 14.6806 49.4536 13.8915 48.7305 13.3406L47.5185 14.9314C47.6914 15.0632 47.7965 15.2341 47.7965 15.576H49.7965ZM48.7537 13.3588C48.0718 12.8067 47.2029 12.592 46.2685 12.592V14.592C46.9128 14.592 47.2812 14.7399 47.4953 14.9132L48.7537 13.3588ZM46.2685 12.592H42.3005V14.592H46.2685V12.592ZM41.3158 13.4175L40.4198 18.4735L42.3892 18.8225L43.2852 13.7665L41.3158 13.4175ZM41.4045 19.648H45.4365V17.648H41.4045V19.648ZM45.4365 19.648C46.5209 19.648 47.5055 19.4012 48.2862 18.8006L47.0668 17.2154C46.7382 17.4681 46.2295 17.648 45.4365 17.648V19.648ZM48.2862 18.8006C49.0708 18.1971 49.5303 17.341 49.716 16.3332L47.749 15.9708C47.636 16.5843 47.3916 16.9655 47.0668 17.2154L48.2862 18.8006ZM79.4903 0.535999L80.3128 1.10475L81.3975 -0.464001H79.4903V0.535999ZM69.0903 15.576L68.2677 15.0072L68.1448 15.1851L68.1062 15.3979L69.0903 15.576ZM67.7463 23V24H68.5815L68.7303 23.1781L67.7463 23ZM62.2743 23L61.2902 22.8219L61.077 24H62.2743V23ZM63.6183 15.576L64.6023 15.7541L64.6486 15.4981L64.5643 15.2519L63.6183 15.576ZM58.4663 0.535999V-0.464001H57.0667L57.5202 0.860066L58.4663 0.535999ZM64.6743 0.535999L65.6355 0.260412L65.4278 -0.464001H64.6743V0.535999ZM67.3623 9.912L66.401 10.1876L67.0121 12.3194L68.2052 10.45L67.3623 9.912ZM73.3463 0.535999V-0.464001H72.7982L72.5033 -0.00199266L73.3463 0.535999ZM78.6677 -0.0327556L68.2677 15.0072L69.9128 16.1448L80.3128 1.10475L78.6677 -0.0327556ZM68.1062 15.3979L66.7622 22.8219L68.7303 23.1781L70.0743 15.7541L68.1062 15.3979ZM67.7463 22H62.2743V24H67.7463V22ZM63.2583 23.1781L64.6023 15.7541L62.6342 15.3979L61.2902 22.8219L63.2583 23.1781ZM64.5643 15.2519L59.4123 0.211932L57.5202 0.860066L62.6722 15.9001L64.5643 15.2519ZM58.4663 1.536H64.6743V-0.464001H58.4663V1.536ZM63.713 0.811587L66.401 10.1876L68.3235 9.63641L65.6355 0.260412L63.713 0.811587ZM68.2052 10.45L74.1892 1.07399L72.5033 -0.00199266L66.5193 9.37401L68.2052 10.45ZM73.3463 1.536H79.4903V-0.464001H73.3463V1.536ZM103.725 0.535999L104.71 0.711033L104.919 -0.464001H103.725V0.535999ZM102.957 4.856V5.856H103.795L103.942 5.03103L102.957 4.856ZM93.8053 4.856V3.856H92.9627L92.8198 4.68631L93.8053 4.856ZM92.9733 9.688L91.9878 9.51831L91.7863 10.688H92.9733V9.688ZM99.8213 9.688L100.805 9.86955L101.023 8.688H99.8213V9.688ZM99.0533 13.848V14.848H99.8855L100.037 14.0295L99.0533 13.848ZM92.2053 13.848V12.848H91.3649L91.2202 13.6758L92.2053 13.848ZM90.6053 23V24H91.4456L91.5903 23.1722L90.6053 23ZM85.1333 23L84.1485 22.8261L83.9411 24H85.1333V23ZM89.1013 0.535999V-0.464001H88.2624L88.1165 0.362054L89.1013 0.535999ZM102.741 0.360966L101.973 4.68097L103.942 5.03103L104.71 0.711033L102.741 0.360966ZM102.957 3.856H93.8053V5.856H102.957V3.856ZM92.8198 4.68631L91.9878 9.51831L93.9587 9.85769L94.7907 5.02569L92.8198 4.68631ZM92.9733 10.688H99.8213V8.688H92.9733V10.688ZM98.8379 9.50645L98.0699 13.6665L100.037 14.0295L100.805 9.86955L98.8379 9.50645ZM99.0533 12.848H92.2053V14.848H99.0533V12.848ZM91.2202 13.6758L89.6202 22.8278L91.5903 23.1722L93.1903 14.0202L91.2202 13.6758ZM90.6053 22H85.1333V24H90.6053V22ZM86.118 23.1739L90.086 0.709945L88.1165 0.362054L84.1485 22.8261L86.118 23.1739ZM89.1013 1.536H103.725V-0.464001H89.1013V1.536ZM111.305 4.856V3.856H110.462L110.32 4.68722L111.305 4.856ZM110.505 9.528L109.52 9.35922L109.319 10.528H110.505V9.528ZM117.833 9.528L118.818 9.70353L119.027 8.528H117.833V9.528ZM117.097 13.656V14.656H117.935L118.082 13.8315L117.097 13.656ZM109.769 13.656V12.656H108.932L108.785 13.4804L109.769 13.656ZM108.873 18.68L107.889 18.5044L107.679 19.68H108.873V18.68ZM117.161 18.68L118.146 18.855L118.355 17.68H117.161V18.68ZM116.393 23V24H117.231L117.378 23.175L116.393 23ZM102.633 23L101.648 22.8261L101.441 24H102.633V23ZM106.601 0.535999V-0.464001H105.762L105.616 0.362054L106.601 0.535999ZM120.361 0.535999L121.346 0.711033L121.555 -0.464001H120.361V0.535999ZM119.593 4.856V5.856H120.431L120.578 5.03103L119.593 4.856ZM110.32 4.68722L109.52 9.35922L111.491 9.69678L112.291 5.02478L110.32 4.68722ZM110.505 10.528H117.833V8.528H110.505V10.528ZM116.849 9.35247L116.113 13.4805L118.082 13.8315L118.818 9.70353L116.849 9.35247ZM117.097 12.656H109.769V14.656H117.097V12.656ZM108.785 13.4804L107.889 18.5044L109.858 18.8556L110.754 13.8316L108.785 13.4804ZM108.873 19.68H117.161V17.68H108.873V19.68ZM116.177 18.505L115.409 22.825L117.378 23.175L118.146 18.855L116.177 18.505ZM116.393 22H102.633V24H116.393V22ZM103.618 23.1739L107.586 0.709945L105.616 0.362054L101.648 22.8261L103.618 23.1739ZM106.601 1.536H120.361V-0.464001H106.601V1.536ZM119.377 0.360966L118.609 4.68097L120.578 5.03103L121.346 0.711033L119.377 0.360966ZM119.593 3.856H111.305V5.856H119.593V3.856ZM140.298 6.36L141.282 6.5347L141.284 6.5244L140.298 6.36ZM138.666 9.656L137.95 8.95768L137.95 8.95768L138.666 9.656ZM135.594 11.48L135.319 10.5185L135.379 12.4566L135.594 11.48ZM138.122 13.048L138.917 12.4413L138.917 12.4413L138.122 13.048ZM138.954 16.888L137.973 16.6919L137.97 16.7059L137.968 16.72L138.954 16.888ZM136.202 21.368L136.785 22.1802L136.793 22.1748L136.202 21.368ZM119.946 23L118.961 22.8261L118.754 24H119.946V23ZM123.914 0.535999V-0.464001H123.075L122.929 0.362054L123.914 0.535999ZM138.73 1.784L139.33 0.983999L139.33 0.983998L138.73 1.784ZM134.57 7.288L135.556 7.4524L135.556 7.4524L134.57 7.288ZM133.994 5.368L133.35 6.13291L133.362 6.14309L133.374 6.15288L133.994 5.368ZM128.618 4.856V3.856H127.776L127.632 4.68521L128.618 4.856ZM127.786 9.656L126.8 9.48521L126.598 10.656H127.786V9.656ZM133.514 16.152L134.497 16.3332L134.499 16.3248L134.5 16.3164L133.514 16.152ZM132.906 14.136L132.277 14.9132L132.288 14.9225L132.3 14.9314L132.906 14.136ZM127.082 13.592V12.592H126.243L126.097 13.4175L127.082 13.592ZM126.186 18.648L125.201 18.4735L124.993 19.648H126.186V18.648ZM132.458 18.008L131.848 17.2154L131.848 17.2154L132.458 18.008ZM139.313 6.18531C139.11 7.33089 138.649 8.24083 137.95 8.95768L139.382 10.3543C140.389 9.32183 141.016 8.03444 141.282 6.53469L139.313 6.18531ZM137.95 8.95768C137.22 9.70553 136.349 10.2241 135.319 10.5185L135.868 12.4415C137.228 12.0532 138.404 11.3558 139.382 10.3543L137.95 8.95768ZM135.379 12.4566C136.232 12.6444 136.862 13.046 137.327 13.6547L138.917 12.4413C138.144 11.4287 137.089 10.785 135.809 10.5034L135.379 12.4566ZM137.327 13.6547C137.803 14.279 138.05 15.0116 138.05 15.896H140.05C140.05 14.6044 139.678 13.4383 138.917 12.4413L137.327 13.6547ZM138.05 15.896C138.05 16.1745 138.024 16.4393 137.973 16.6919L139.934 17.0841C140.012 16.6967 140.05 16.3002 140.05 15.896H138.05ZM137.968 16.72C137.691 18.3453 136.913 19.6079 135.611 20.5612L136.793 22.1748C138.52 20.9095 139.577 19.1854 139.94 17.056L137.968 16.72ZM135.618 20.5558C134.313 21.4933 132.602 22 130.41 22V24C132.911 24 135.061 23.4187 136.785 22.1802L135.618 20.5558ZM130.41 22H119.946V24H130.41V22ZM120.931 23.1739L124.899 0.709945L122.929 0.362054L118.961 22.8261L120.931 23.1739ZM123.914 1.536H134.026V-0.464001H123.914V1.536ZM134.026 1.536C135.932 1.536 137.257 1.9295 138.13 2.584L139.33 0.983998C137.984 -0.0254984 136.173 -0.464001 134.026 -0.464001V1.536ZM138.13 2.584C138.97 3.214 139.394 4.06018 139.394 5.24H141.394C141.394 3.47582 140.708 2.018 139.33 0.983999L138.13 2.584ZM139.394 5.24C139.394 5.54373 139.367 5.86199 139.311 6.1956L141.284 6.5244C141.357 6.09 141.394 5.6616 141.394 5.24H139.394ZM131.338 10.656C132.397 10.656 133.361 10.4218 134.136 9.85539L132.956 8.24061C132.622 8.48482 132.113 8.656 131.338 8.656V10.656ZM134.136 9.85539C134.93 9.27481 135.391 8.44097 135.556 7.4524L133.583 7.1236C133.492 7.67102 133.271 8.01052 132.956 8.24061L134.136 9.85539ZM135.556 7.4524C135.59 7.24671 135.602 7.01417 135.602 6.776H133.602C133.602 6.9645 133.592 7.07329 133.583 7.1236L135.556 7.4524ZM135.602 6.776C135.602 5.91881 135.307 5.13099 134.613 4.58312L133.374 6.15288C133.491 6.24501 133.602 6.39586 133.602 6.776H135.602ZM134.638 4.60309C133.982 4.05091 133.115 3.856 132.202 3.856V5.856C132.867 5.856 133.195 6.00243 133.35 6.13291L134.638 4.60309ZM132.202 3.856H128.618V5.856H132.202V3.856ZM127.632 4.68521L126.8 9.48521L128.771 9.82679L129.603 5.02679L127.632 4.68521ZM127.786 10.656H131.338V8.656H127.786V10.656ZM134.5 16.3164C134.545 16.0494 134.578 15.7903 134.578 15.576H132.578C132.578 15.6177 132.568 15.7426 132.527 15.9876L134.5 16.3164ZM134.578 15.576C134.578 14.6806 134.235 13.8915 133.512 13.3406L132.3 14.9314C132.473 15.0632 132.578 15.2341 132.578 15.576H134.578ZM133.535 13.3588C132.853 12.8067 131.984 12.592 131.05 12.592V14.592C131.694 14.592 132.062 14.7399 132.277 14.9132L133.535 13.3588ZM131.05 12.592H127.082V14.592H131.05V12.592ZM126.097 13.4175L125.201 18.4735L127.17 18.8225L128.066 13.7665L126.097 13.4175ZM126.186 19.648H130.218V17.648H126.186V19.648ZM130.218 19.648C131.302 19.648 132.287 19.4012 133.067 18.8006L131.848 17.2154C131.519 17.4681 131.011 17.648 130.218 17.648V19.648ZM133.067 18.8006C133.852 18.1971 134.312 17.341 134.497 16.3332L132.53 15.9708C132.417 16.5843 132.173 16.9655 131.848 17.2154L133.067 18.8006ZM159.503 2.136L158.844 2.8878L158.852 2.89432L159.503 2.136ZM161.2 7.608L160.219 7.41188L160.216 7.42542L160.214 7.43903L161.2 7.608ZM159.248 11.608L159.994 12.2732L159.994 12.2732L159.248 11.608ZM155.056 14.104L154.785 13.1412L153.708 13.4435L154.129 14.4806L155.056 14.104ZM158.672 23V24H160.157L159.598 22.6234L158.672 23ZM152.496 23L151.559 23.35L151.802 24H152.496V23ZM149.328 14.52L150.264 14.17L150.021 13.52H149.328V14.52ZM148.016 14.52V13.52H147.177L147.031 14.3454L148.016 14.52ZM146.512 23V24H147.35L147.496 23.1746L146.512 23ZM141.04 23L140.055 22.8261L139.847 24H141.04V23ZM145.008 0.535999V-0.464001H144.169L144.023 0.362054L145.008 0.535999ZM155.6 7.832L156.582 8.01911L156.588 7.98773L156.592 7.95603L155.6 7.832ZM154.992 5.592L154.323 6.33529L154.342 6.35279L154.362 6.36924L154.992 5.592ZM149.68 5.016V4.016H148.84L148.695 4.84253L149.68 5.016ZM148.688 10.648L147.703 10.4745L147.496 11.648H148.688V10.648ZM154.448 9.912L153.813 9.13927L153.806 9.14495L153.799 9.15076L154.448 9.912ZM154.192 1.536C156.379 1.536 157.876 2.03877 158.844 2.88776L160.163 1.38424C158.699 0.0998973 156.655 -0.464001 154.192 -0.464001V1.536ZM158.852 2.89432C159.834 3.7389 160.328 4.82113 160.328 6.232H162.328C162.328 4.2722 161.605 2.62377 160.155 1.37768L158.852 2.89432ZM160.328 6.232C160.328 6.66501 160.29 7.05736 160.219 7.41188L162.18 7.80412C162.28 7.3053 162.328 6.78032 162.328 6.232H160.328ZM160.214 7.43903C159.991 8.74077 159.427 9.90378 158.501 10.9428L159.994 12.2732C161.159 10.9656 161.896 9.4619 162.185 7.77696L160.214 7.43903ZM158.501 10.9428C157.602 11.9522 156.38 12.6939 154.785 13.1412L155.326 15.0668C157.23 14.5328 158.803 13.6105 159.994 12.2732L158.501 10.9428ZM154.129 14.4806L157.745 23.3766L159.598 22.6234L155.982 13.7274L154.129 14.4806ZM158.672 22H152.496V24H158.672V22ZM153.432 22.65L150.264 14.17L148.391 14.87L151.559 23.35L153.432 22.65ZM149.328 13.52H148.016V15.52H149.328V13.52ZM147.031 14.3454L145.527 22.8254L147.496 23.1746L149 14.6946L147.031 14.3454ZM146.512 22H141.04V24H146.512V22ZM142.024 23.1739L145.992 0.709945L144.023 0.362054L140.055 22.8261L142.024 23.1739ZM145.008 1.536H154.192V-0.464001H145.008V1.536ZM156.592 7.95603C156.633 7.62843 156.664 7.34038 156.664 7.16H154.664C154.664 7.15688 154.664 7.16741 154.662 7.19762C154.66 7.22595 154.657 7.26401 154.652 7.31319C154.643 7.41178 154.628 7.54253 154.607 7.70796L156.592 7.95603ZM156.664 7.16C156.664 6.23752 156.347 5.40311 155.621 4.81475L154.362 6.36924C154.532 6.50622 154.664 6.71714 154.664 7.16H156.664ZM155.66 4.8487C154.978 4.23489 154.054 4.016 153.072 4.016V6.016C153.795 6.016 154.151 6.1811 154.323 6.33529L155.66 4.8487ZM153.072 4.016H149.68V6.016H153.072V4.016ZM148.695 4.84253L147.703 10.4745L149.672 10.8215L150.664 5.18947L148.695 4.84253ZM148.688 11.648H152.08V9.648H148.688V11.648ZM152.08 11.648C153.242 11.648 154.287 11.3621 155.096 10.6732L153.799 9.15076C153.456 9.44325 152.923 9.648 152.08 9.648V11.648ZM155.082 10.6847C155.892 10.0198 156.376 9.10163 156.582 8.01911L154.617 7.64489C154.482 8.35436 154.198 8.82291 153.813 9.13927L155.082 10.6847ZM171.355 0.535999L172.339 0.709945L172.547 -0.464001H171.355V0.535999ZM167.387 23V24H168.225L168.371 23.1739L167.387 23ZM161.915 23L160.93 22.8261L160.722 24H161.915V23ZM165.883 0.535999V-0.464001H165.044L164.898 0.362054L165.883 0.535999ZM170.37 0.362054L166.402 22.8261L168.371 23.1739L172.339 0.709945L170.37 0.362054ZM167.387 22H161.915V24H167.387V22ZM162.899 23.1739L166.867 0.709945L164.898 0.362054L160.93 22.8261L162.899 23.1739ZM165.883 1.536H171.355V-0.464001H165.883V1.536ZM201.99 0.535999L202.813 1.10475L203.898 -0.464001H201.99V0.535999ZM191.59 15.576L190.768 15.0072L190.645 15.1851L190.606 15.3979L191.59 15.576ZM190.246 23V24H191.081L191.23 23.1781L190.246 23ZM184.774 23L183.79 22.8219L183.577 24H184.774V23ZM186.118 15.576L187.102 15.7541L187.149 15.4981L187.064 15.2519L186.118 15.576ZM180.966 0.535999V-0.464001H179.567L180.02 0.860066L180.966 0.535999ZM187.174 0.535999L188.136 0.260412L187.928 -0.464001H187.174V0.535999ZM189.862 9.912L188.901 10.1876L189.512 12.3194L190.705 10.45L189.862 9.912ZM195.846 0.535999V-0.464001H195.298L195.003 -0.00199266L195.846 0.535999ZM201.168 -0.0327556L190.768 15.0072L192.413 16.1448L202.813 1.10475L201.168 -0.0327556ZM190.606 15.3979L189.262 22.8219L191.23 23.1781L192.574 15.7541L190.606 15.3979ZM190.246 22H184.774V24H190.246V22ZM185.758 23.1781L187.102 15.7541L185.134 15.3979L183.79 22.8219L185.758 23.1781ZM187.064 15.2519L181.912 0.211932L180.02 0.860066L185.172 15.9001L187.064 15.2519ZM180.966 1.536H187.174V-0.464001H180.966V1.536ZM186.213 0.811587L188.901 10.1876L190.824 9.63641L188.136 0.260412L186.213 0.811587ZM190.705 10.45L196.689 1.07399L195.003 -0.00199266L189.019 9.37401L190.705 10.45ZM195.846 1.536H201.99V-0.464001H195.846V1.536ZM214.915 19.032L215.902 18.8728L215.767 18.032H214.915V19.032ZM206.531 19.032V18.032H205.922L205.642 18.5734L206.531 19.032ZM204.483 23V24H205.092L205.372 23.4586L204.483 23ZM198.755 23L197.875 22.5259L197.081 24H198.755V23ZM210.851 0.535999V-0.464001H210.254L209.971 0.0618995L210.851 0.535999ZM217.187 0.535999L218.17 0.35391L218.019 -0.464001H217.187V0.535999ZM221.347 23V24H222.549L222.33 22.8179L221.347 23ZM215.555 23L214.568 23.1592L214.703 24H215.555V23ZM214.275 14.872V15.872H215.445L215.263 14.7162L214.275 14.872ZM212.963 6.552L213.951 6.39623L213.475 3.3765L212.074 6.09388L212.963 6.552ZM208.675 14.872L207.786 14.4139L207.035 15.872H208.675V14.872ZM214.915 18.032H206.531V20.032H214.915V18.032ZM205.642 18.5734L203.594 22.5414L205.372 23.4586L207.42 19.4906L205.642 18.5734ZM204.483 22H198.755V24H204.483V22ZM199.635 23.4741L211.731 1.0101L209.971 0.0618995L197.875 22.5259L199.635 23.4741ZM210.851 1.536H217.187V-0.464001H210.851V1.536ZM216.204 0.718089L220.364 23.1821L222.33 22.8179L218.17 0.35391L216.204 0.718089ZM221.347 22H215.555V24H221.347V22ZM216.542 22.8408L215.902 18.8728L213.928 19.1912L214.568 23.1592L216.542 22.8408ZM215.263 14.7162L213.951 6.39623L211.975 6.70777L213.287 15.0278L215.263 14.7162ZM212.074 6.09388L207.786 14.4139L209.564 15.3301L213.852 7.01012L212.074 6.09388ZM208.675 15.872H214.275V13.872H208.675V15.872ZM243.917 23V24H244.756L244.902 23.1739L243.917 23ZM238.445 23L237.544 23.4347L237.817 24H238.445V23ZM231.757 9.144L232.657 8.70931L231.313 5.92514L230.772 8.96892L231.757 9.144ZM229.293 23V24H230.131L230.277 23.1751L229.293 23ZM223.821 23L222.836 22.8261L222.629 24H223.821V23ZM227.789 0.535999V-0.464001H226.95L226.804 0.362054L227.789 0.535999ZM233.261 0.535999L234.162 0.102931L233.89 -0.464001H233.261V0.535999ZM239.949 14.456L239.047 14.8891L240.392 17.688L240.933 14.6303L239.949 14.456ZM242.413 0.535999V-0.464001H241.574L241.428 0.361698L242.413 0.535999ZM247.885 0.535999L248.87 0.709945L249.077 -0.464001H247.885V0.535999ZM243.917 22H238.445V24H243.917V22ZM239.345 22.5653L232.657 8.70931L230.856 9.57869L237.544 23.4347L239.345 22.5653ZM230.772 8.96892L228.308 22.8249L230.277 23.1751L232.741 9.31908L230.772 8.96892ZM229.293 22H223.821V24H229.293V22ZM224.806 23.1739L228.774 0.709945L226.804 0.362054L222.836 22.8261L224.806 23.1739ZM227.789 1.536H233.261V-0.464001H227.789V1.536ZM232.359 0.969067L239.047 14.8891L240.85 14.0229L234.162 0.102931L232.359 0.969067ZM240.933 14.6303L243.397 0.710301L241.428 0.361698L238.964 14.2817L240.933 14.6303ZM242.413 1.536H247.885V-0.464001H242.413V1.536ZM246.9 0.362054L242.932 22.8261L244.902 23.1739L248.87 0.709945L246.9 0.362054ZM250.859 21.656L250.283 22.4736L250.29 22.4782L250.297 22.4827L250.859 21.656ZM248.651 16.28V15.28H247.756L247.657 16.1696L248.651 16.28ZM254.347 16.28L255.344 16.3587L255.429 15.28H254.347V16.28ZM258.923 18.36L258.329 17.5558L258.32 17.5622L258.312 17.5687L258.923 18.36ZM258.731 15.16L258.15 15.9737L258.157 15.9785L258.164 15.9832L258.731 15.16ZM255.915 13.72L256.3 12.7969L256.298 12.796L255.915 13.72ZM252.875 12.28L252.354 13.1333L252.368 13.1417L252.382 13.1497L252.875 12.28ZM250.859 10.392L250.051 10.9815L250.051 10.9815L250.859 10.392ZM249.995 7.416H250.995V7.40875L250.995 7.40151L249.995 7.416ZM254.187 1.08L253.788 0.163163L253.788 0.163163L254.187 1.08ZM262.827 0.952L262.447 1.87702L262.454 1.87994L262.462 1.88275L262.827 0.952ZM265.611 3.032L264.8 3.61684L264.807 3.62585L265.611 3.032ZM266.571 6.936V7.936H267.439L267.561 7.07742L266.571 6.936ZM260.747 6.936L259.777 6.69346L259.466 7.936H260.747V6.936ZM260.139 5.112L259.452 5.83795L259.471 5.85649L259.492 5.87394L260.139 5.112ZM256.555 5.112L257.167 5.9033L257.172 5.8995L256.555 5.112ZM256.747 8.248L256.147 9.048L256.157 9.05497L256.166 9.06173L256.747 8.248ZM259.531 9.752L259.947 8.84269L259.947 8.84269L259.531 9.752ZM262.603 11.352L262.075 12.2013L262.085 12.2075L262.603 11.352ZM264.683 13.336L263.861 13.9053L263.868 13.9152L264.683 13.336ZM264.491 19.896L265.321 20.4546L265.321 20.4546L264.491 19.896ZM261.451 22.36L261.851 23.2769L261.863 23.2714L261.451 22.36ZM256.811 22.224C254.519 22.224 252.748 21.7316 251.422 20.8293L250.297 22.4827C252.043 23.6711 254.24 24.224 256.811 24.224V22.224ZM251.435 20.8384C250.201 19.9694 249.587 18.7785 249.587 17.144H247.587C247.587 19.3922 248.488 21.2093 250.283 22.4736L251.435 20.8384ZM249.587 17.144C249.587 17.0096 249.603 16.7666 249.645 16.3904L247.657 16.1696C247.614 16.5614 247.587 16.8944 247.587 17.144H249.587ZM248.651 17.28H254.347V15.28H248.651V17.28ZM253.35 16.2013C253.27 17.2184 253.508 18.1653 254.2 18.8905L255.647 17.5095C255.443 17.2961 255.296 16.9629 255.344 16.3587L253.35 16.2013ZM254.2 18.8905C254.904 19.6277 255.896 19.904 256.971 19.904V17.904C256.212 17.904 255.839 17.711 255.647 17.5095L254.2 18.8905ZM256.971 19.904C257.937 19.904 258.832 19.6943 259.535 19.1513L258.312 17.5687C258.076 17.751 257.669 17.904 256.971 17.904V19.904ZM259.518 19.1642C260.287 18.5953 260.659 17.7716 260.659 16.824H258.659C258.659 17.199 258.541 17.3994 258.329 17.5558L259.518 19.1642ZM260.659 16.824C260.659 15.7755 260.156 14.928 259.299 14.3368L258.164 15.9832C258.544 16.2453 258.659 16.5072 258.659 16.824H260.659ZM259.312 14.3463C258.622 13.8529 257.6 13.3385 256.3 12.7969L255.531 14.6431C256.791 15.1682 257.646 15.6138 258.15 15.9737L259.312 14.3463ZM256.298 12.796C255.082 12.2931 254.11 11.8308 253.369 11.4103L252.382 13.1497C253.219 13.6252 254.274 14.1229 255.533 14.644L256.298 12.796ZM253.397 11.4267C252.75 11.0314 252.172 10.4951 251.667 9.80253L250.051 10.9815C250.698 11.8675 251.465 12.59 252.354 13.1333L253.397 11.4267ZM251.667 9.80253C251.242 9.21949 250.995 8.44684 250.995 7.416H248.995C248.995 8.77449 249.325 9.98585 250.051 10.9815L251.667 9.80253ZM250.995 7.40151C250.976 6.11145 251.292 5.0397 251.908 4.14184L250.259 3.01016C249.382 4.2883 248.971 5.77654 248.995 7.43049L250.995 7.40151ZM251.908 4.14184C252.539 3.22267 253.419 2.50523 254.587 1.99683L253.788 0.163163C252.31 0.806763 251.121 1.75333 250.259 3.01016L251.908 4.14184ZM254.587 1.99683C255.762 1.48479 257.137 1.216 258.731 1.216V-0.784C256.912 -0.784 255.258 -0.476787 253.788 0.163163L254.587 1.99683ZM258.731 1.216C260.161 1.216 261.394 1.44429 262.447 1.87702L263.207 0.0269799C261.871 -0.521626 260.373 -0.784 258.731 -0.784V1.216ZM262.462 1.88275C263.502 2.29165 264.266 2.87544 264.8 3.6168L266.422 2.4472C265.634 1.35389 264.541 0.551012 263.193 0.0212479L262.462 1.88275ZM264.807 3.62585C265.327 4.33084 265.603 5.18347 265.603 6.232H267.603C267.603 4.80586 267.218 3.52516 266.416 2.43815L264.807 3.62585ZM265.603 6.232C265.603 6.54492 265.592 6.7198 265.581 6.79458L267.561 7.07742C267.593 6.85354 267.603 6.55908 267.603 6.232H265.603ZM266.571 5.936H260.747V7.936H266.571V5.936ZM261.717 7.17854C261.769 6.97081 261.779 6.74314 261.779 6.552H259.779C259.779 6.618 259.777 6.66383 259.775 6.69295C259.772 6.72528 259.77 6.721 259.777 6.69346L261.717 7.17854ZM261.779 6.552C261.779 5.68358 261.454 4.9167 260.787 4.35006L259.492 5.87394C259.678 6.03263 259.779 6.22575 259.779 6.552H261.779ZM260.827 4.38605C260.185 3.7783 259.345 3.536 258.443 3.536V5.536C258.992 5.536 259.282 5.6777 259.452 5.83795L260.827 4.38605ZM258.443 3.536C257.505 3.536 256.643 3.77323 255.939 4.32449L257.172 5.8995C257.448 5.68277 257.845 5.536 258.443 5.536V3.536ZM255.944 4.32071C255.208 4.88937 254.851 5.69455 254.851 6.616H256.851C256.851 6.25745 256.964 6.05996 257.167 5.90329L255.944 4.32071ZM254.851 6.616C254.851 7.62585 255.346 8.44684 256.147 9.048L257.347 7.448C256.954 7.15316 256.851 6.88615 256.851 6.616H254.851ZM256.166 9.06173C256.842 9.54482 257.84 10.0777 259.115 10.6613L259.947 8.84269C258.705 8.27431 257.847 7.80451 257.328 7.43427L256.166 9.06173ZM259.115 10.6613C260.352 11.2273 261.335 11.7409 262.075 12.2013L263.131 10.5027C262.293 9.98174 261.228 9.42868 259.947 8.84269L259.115 10.6613ZM262.085 12.2075C262.768 12.6204 263.36 13.181 263.861 13.9052L265.505 12.7668C264.855 11.827 264.06 11.065 263.121 10.4965L262.085 12.2075ZM263.868 13.9152C264.301 14.5249 264.547 15.3142 264.547 16.344H266.547C266.547 14.9845 266.217 13.7684 265.498 12.7568L263.868 13.9152ZM264.547 16.344C264.547 17.478 264.249 18.4656 263.662 19.3374L265.321 20.4546C266.142 19.2358 266.547 17.8553 266.547 16.344H264.547ZM263.662 19.3374C263.077 20.2064 262.219 20.916 261.04 21.4486L261.863 23.2714C263.329 22.6094 264.498 21.6763 265.321 20.4546L263.662 19.3374ZM261.052 21.4432C259.88 21.9533 258.475 22.224 256.811 22.224V24.224C258.689 24.224 260.377 23.9187 261.851 23.2768L261.052 21.4432ZM291.022 0.535999L291.844 1.10475L292.929 -0.464001H291.022V0.535999ZM280.622 15.576L279.799 15.0072L279.676 15.1851L279.637 15.3979L280.622 15.576ZM279.278 23V24H280.113L280.262 23.1781L279.278 23ZM273.806 23L272.821 22.8219L272.608 24H273.806V23ZM275.15 15.576L276.134 15.7541L276.18 15.4981L276.096 15.2519L275.15 15.576ZM269.998 0.535999V-0.464001H268.598L269.051 0.860066L269.998 0.535999ZM276.206 0.535999L277.167 0.260412L276.959 -0.464001H276.206V0.535999ZM278.894 9.912L277.932 10.1876L278.543 12.3194L279.736 10.45L278.894 9.912ZM284.878 0.535999V-0.464001H284.329L284.035 -0.00199266L284.878 0.535999ZM290.199 -0.0327556L279.799 15.0072L281.444 16.1448L291.844 1.10475L290.199 -0.0327556ZM279.637 15.3979L278.293 22.8219L280.262 23.1781L281.606 15.7541L279.637 15.3979ZM279.278 22H273.806V24H279.278V22ZM274.79 23.1781L276.134 15.7541L274.165 15.3979L272.821 22.8219L274.79 23.1781ZM276.096 15.2519L270.944 0.211932L269.051 0.860066L274.203 15.9001L276.096 15.2519ZM269.998 1.536H276.206V-0.464001H269.998V1.536ZM275.244 0.811587L277.932 10.1876L279.855 9.63641L277.167 0.260412L275.244 0.811587ZM279.736 10.45L285.72 1.07399L284.035 -0.00199266L278.051 9.37401L279.736 10.45ZM284.878 1.536H291.022V-0.464001H284.878V1.536ZM303.946 19.032L304.933 18.8728L304.798 18.032H303.946V19.032ZM295.562 19.032V18.032H294.953L294.674 18.5734L295.562 19.032ZM293.514 23V24H294.123L294.403 23.4586L293.514 23ZM287.786 23L286.906 22.5259L286.112 24H287.786V23ZM299.882 0.535999V-0.464001H299.285L299.002 0.0618995L299.882 0.535999ZM306.218 0.535999L307.202 0.35391L307.05 -0.464001H306.218V0.535999ZM310.378 23V24H311.58L311.362 22.8179L310.378 23ZM304.586 23L303.599 23.1592L303.735 24H304.586V23ZM303.306 14.872V15.872H304.476L304.294 14.7162L303.306 14.872ZM301.994 6.552L302.982 6.39623L302.506 3.3765L301.105 6.09388L301.994 6.552ZM297.706 14.872L296.817 14.4139L296.066 15.872H297.706V14.872ZM303.946 18.032H295.562V20.032H303.946V18.032ZM294.674 18.5734L292.626 22.5414L294.403 23.4586L296.451 19.4906L294.674 18.5734ZM293.514 22H287.786V24H293.514V22ZM288.667 23.4741L300.763 1.0101L299.002 0.0618995L286.906 22.5259L288.667 23.4741ZM299.882 1.536H306.218V-0.464001H299.882V1.536ZM305.235 0.718089L309.395 23.1821L311.362 22.8179L307.202 0.35391L305.235 0.718089ZM310.378 22H304.586V24H310.378V22ZM305.573 22.8408L304.933 18.8728L302.959 19.1912L303.599 23.1592L305.573 22.8408ZM304.294 14.7162L302.982 6.39623L301.006 6.70777L302.318 15.0278L304.294 14.7162ZM301.105 6.09388L296.817 14.4139L298.595 15.3301L302.883 7.01012L301.105 6.09388ZM297.706 15.872H303.306V13.872H297.706V15.872ZM336.276 0.535999L337.261 0.709945L337.468 -0.464001H336.276V0.535999ZM332.308 23V24H333.147L333.293 23.1739L332.308 23ZM326.836 23L325.851 22.8274L325.646 24H326.836V23ZM328.468 13.688L329.453 13.8606L329.658 12.688H328.468V13.688ZM319.956 13.688V12.688H319.116L318.971 13.5154L319.956 13.688ZM318.324 23V24H319.164L319.309 23.1726L318.324 23ZM312.852 23L311.867 22.8261L311.66 24H312.852V23ZM316.82 0.535999V-0.464001H315.981L315.835 0.362054L316.82 0.535999ZM322.292 0.535999L323.277 0.710802L323.485 -0.464001H322.292V0.535999ZM320.724 9.368L319.739 9.1932L319.531 10.368H320.724V9.368ZM329.236 9.368V10.368H330.074L330.221 9.5428L329.236 9.368ZM330.804 0.535999V-0.464001H329.966L329.819 0.361196L330.804 0.535999ZM335.291 0.362054L331.323 22.8261L333.293 23.1739L337.261 0.709945L335.291 0.362054ZM332.308 22H326.836V24H332.308V22ZM327.821 23.1726L329.453 13.8606L327.483 13.5154L325.851 22.8274L327.821 23.1726ZM328.468 12.688H319.956V14.688H328.468V12.688ZM318.971 13.5154L317.339 22.8274L319.309 23.1726L320.941 13.8606L318.971 13.5154ZM318.324 22H312.852V24H318.324V22ZM313.837 23.1739L317.805 0.709945L315.835 0.362054L311.867 22.8261L313.837 23.1739ZM316.82 1.536H322.292V-0.464001H316.82V1.536ZM321.307 0.361196L319.739 9.1932L321.709 9.5428L323.277 0.710802L321.307 0.361196ZM320.724 10.368H329.236V8.368H320.724V10.368ZM330.221 9.5428L331.789 0.710802L329.819 0.361196L328.251 9.1932L330.221 9.5428ZM330.804 1.536H336.276V-0.464001H330.804V1.536Z" fill="black"/>
</svg>
